<?xml version="1.0" encoding="UTF-8" standalone="no"?>
<!DOCTYPE svg PUBLIC "-//W3C//DTD SVG 1.1//EN" "http://www.w3.org/Graphics/SVG/1.1/DTD/svg11.dtd">
<svg width="100%" height="100%" viewBox="0 0 512 512" version="1.1" xmlns="http://www.w3.org/2000/svg" xmlns:xlink="http://www.w3.org/1999/xlink" xml:space="preserve" xmlns:serif="http://www.serif.com/" style="fill-rule:evenodd;clip-rule:evenodd;stroke-linecap:round;stroke-linejoin:round;stroke-miterlimit:1.5;">
    <rect id="ArtBoard1" x="0" y="0" width="512" height="512" style="fill:none;"/>
    <g id="ArtBoard11" serif:id="ArtBoard1">
        <circle cx="256" cy="256" r="256" style="fill:url(#_Linear1);"/>
        <clipPath id="_clip2">
            <circle cx="256" cy="256" r="256"/>
        </clipPath>
        <g clip-path="url(#_clip2)">
            <path d="M240.115,262.771L236.79,206.774L226.291,168.626L176.943,205.199L188.843,206.949L240.115,262.771Z" style="fill:rgb(253,250,220);"/>
            <path d="M226.291,168.626L269.054,208.513L301.427,330.35L240.115,262.771L236.79,206.774L226.291,168.626Z" style="fill:rgb(253,252,223);"/>
            <path d="M226.291,168.626L289.287,184.998L294.619,212.692L301.427,330.35L269.054,208.513L226.291,168.626Z" style="fill:rgb(251,253,222);"/>
            <path d="M289.287,184.998L339.364,149.489L315.098,204.173L301.427,330.35L294.619,212.692L289.287,184.998Z" style="fill:rgb(253,253,226);"/>
            <path d="M339.364,149.489L350.6,202.122L339.364,211.35L301.427,330.35L315.098,204.173L339.364,149.489Z" style="fill:rgb(249,247,224);"/>
            <path d="M339.364,149.489L399.772,168.626L350.6,202.122L339.364,149.489Z" style="fill:rgb(249,246,236);"/>
            <path d="M350.6,202.122L364.656,206.907L413.53,256L301.427,330.35L339.364,211.35L350.6,202.122Z" style="fill:rgb(252,250,239);"/>
            <path d="M399.772,168.626L409.087,202.122L413.53,256L364.656,206.907L350.6,202.122L399.772,168.626Z" style="fill:rgb(251,249,243);"/>
            <path d="M399.772,168.626L462.404,183.325L431.644,205.882L413.53,256L409.087,202.122L399.772,168.626Z" style="fill:rgb(249,247,246);"/>
            <path d="M462.404,183.325L529.337,192.79L526.537,204.223L492.005,204.923L413.53,256L431.644,205.882L462.404,183.325Z" style="fill:rgb(249,249,251);"/>
            <path d="M301.427,330.35L363.819,349.719L387.734,333.387L413.53,256L301.427,330.35Z" style="fill:rgb(251,249,244);"/>
            <path d="M413.53,256L476.104,326.97L512,216.435L526.537,204.223L492.005,204.923L413.53,256Z" style="fill:rgb(245,246,249);"/>
            <path d="M476.104,326.97L486.02,381.801L560.099,276.806L526.537,204.223L512,216.435L476.104,326.97Z" style="fill:rgb(245,246,252);"/>
            <path d="M413.53,256L425.649,366.051L476.104,326.97L413.53,256Z" style="fill:rgb(246,246,248);"/>
            <path d="M413.53,256L425.649,366.051L363.819,349.719L387.734,333.387L413.53,256Z" style="fill:rgb(248,246,246);"/>
            <path d="M425.649,366.051L476.104,326.97L486.02,381.801L425.649,366.051Z" style="fill:rgb(236,236,247);"/>
            <path d="M425.649,366.051L439.356,416.799L486.02,381.801L425.649,366.051Z" style="fill:rgb(220,219,240);"/>
            <path d="M439.356,416.799L376.516,400.716L443.115,459.102L486.02,381.801L439.356,416.799Z" style="fill:rgb(175,175,227);"/>
            <path d="M376.516,400.716L425.649,366.051L439.356,416.799L376.516,400.716Z" style="fill:rgb(227,225,240);"/>
            <path d="M363.819,349.719L376.516,400.716L425.649,366.051L363.819,349.719Z" style="fill:rgb(244,240,244);"/>
            <path d="M301.427,330.35L376.516,400.716L363.819,349.719L301.427,330.35Z" style="fill:rgb(250,249,246);"/>
            <path d="M301.427,330.35L314.158,384.535L376.516,400.716L301.427,330.35Z" style="fill:rgb(248,245,243);"/>
            <path d="M314.158,384.535L328.391,436.566L376.516,400.716L314.158,384.535Z" style="fill:rgb(233,225,230);"/>
            <path d="M328.391,436.566L389.521,449.865L376.516,400.716L328.391,436.566Z" style="fill:rgb(207,196,220);"/>
            <path d="M389.521,449.865L443.115,459.102L376.516,400.716L389.521,449.865Z" style="fill:rgb(175,175,227);"/>
            <path d="M389.521,449.865L340.57,487.336L443.115,459.102L389.521,449.865Z" style="fill:rgb(144,134,200);"/>
            <path d="M328.391,436.566L340.57,487.336L389.521,449.865L328.391,436.566Z" style="fill:rgb(166,141,186);"/>
            <path d="M340.57,487.336L398.321,471.435L366.516,496.856L340.57,487.336Z" style="fill:rgb(82,74,177);"/>
            <path d="M340.57,487.336L309.399,512L366.516,496.856L340.57,487.336Z" style="fill:rgb(87,66,133);"/>
            <path d="M340.57,487.336L228.396,505.825L279.166,523.893L309.399,512L340.57,487.336Z" style="fill:rgb(106,59,124);"/>
            <path d="M228.396,505.825L225.299,527.072L253.603,514.795L228.396,505.825Z" style="fill:rgb(118,70,137);"/>
            <path d="M228.396,505.825L188.066,508.417L226.355,519.828L228.396,505.825Z" style="fill:rgb(148,75,139);"/>
            <path d="M228.396,505.825L276.516,470.24L340.57,487.336L228.396,505.825Z" style="fill:rgb(140,81,147);"/>
            <path d="M276.516,470.24L328.391,436.566L340.57,487.336L276.516,470.24Z" style="fill:rgb(171,129,175);"/>
            <path d="M265.466,419.171L328.391,436.566L276.516,470.24L265.466,419.171Z" style="fill:rgb(207,186,198);"/>
            <path d="M265.466,419.171L228.396,505.825L276.516,470.24L265.466,419.171Z" style="fill:rgb(191,162,183);"/>
            <path d="M265.466,419.171L314.158,384.535L328.391,436.566L265.466,419.171Z" style="fill:rgb(234,223,225);"/>
            <path d="M301.427,330.35L265.466,419.171L314.158,384.535L301.427,330.35Z" style="fill:rgb(249,244,241);"/>
            <path d="M153.598,436.566L164.611,488.541L228.396,505.825L153.598,436.566Z" style="fill:rgb(217,172,187);"/>
            <path d="M153.598,436.566L216.875,454.01L228.396,505.825L153.598,436.566Z" style="fill:rgb(218,177,187);"/>
            <path d="M216.875,454.01L265.466,419.171L228.396,505.825L216.875,454.01Z" style="fill:rgb(222,197,207);"/>
            <path d="M203.062,403.426L216.875,454.01L265.466,419.171L203.062,403.426Z" style="fill:rgb(240,224,223);"/>
            <path d="M164.611,488.541L105.441,476.595L188.066,508.417L228.396,505.825L164.611,488.541Z" style="fill:rgb(197,133,164);"/>
            <path d="M153.598,436.566L105.441,476.595L164.611,488.541L153.598,436.566Z" style="fill:rgb(240,207,210);"/>
            <path d="M153.598,436.566L203.062,403.426L216.875,454.01L153.598,436.566Z" style="fill:rgb(243,224,221);"/>
            <path d="M90.322,421.531L153.598,436.566L105.441,476.595L90.322,421.531Z" style="fill:rgb(248,227,223);"/>
            <path d="M90.322,421.531L51.87,449.063L105.441,476.595L90.322,421.531Z" style="fill:rgb(249,224,223);"/>
            <path d="M142.399,387.747L153.598,436.566L203.062,403.426L142.399,387.747Z" style="fill:rgb(250,237,231);"/>
            <path d="M191.489,351.535L142.399,387.747L203.062,403.426L191.489,351.535Z" style="fill:rgb(252,241,229);"/>
            <path d="M191.489,351.535L253.273,367.774L203.062,403.426L191.489,351.535Z" style="fill:rgb(250,242,233);"/>
            <path d="M253.273,367.774L265.466,419.171L203.062,403.426L253.273,367.774Z" style="fill:rgb(247,239,235);"/>
            <path d="M253.273,367.774L301.427,330.35L265.466,419.171L253.273,367.774Z" style="fill:rgb(251,247,241);"/>
            <path d="M191.489,351.535L301.427,330.35L253.273,367.774L191.489,351.535Z" style="fill:rgb(249,245,231);"/>
            <path d="M142.399,387.747L78.65,370.072L153.598,436.566L142.399,387.747Z" style="fill:rgb(252,241,233);"/>
            <path d="M78.65,370.072L90.322,421.531L153.598,436.566L78.65,370.072Z" style="fill:rgb(252,236,230);"/>
            <path d="M78.656,370.099L28.392,407.254L51.87,449.063L90.322,421.531L78.656,370.099Z" style="fill:rgb(252,235,231);"/>
            <path d="M240.115,262.771L216.558,332.903L191.489,351.535L301.427,330.35L240.115,262.771Z" style="fill:rgb(252,247,221);"/>
            <path d="M176.943,205.199L191.489,351.535L216.558,332.903L240.115,262.771L188.843,206.949L176.943,205.199Z" style="fill:rgb(253,247,224);"/>
            <path d="M176.943,205.199L130.177,337.402L191.489,351.535L176.943,205.199Z" style="fill:rgb(253,246,230);"/>
            <path d="M130.177,337.402L78.656,370.099L142.399,387.747L191.489,351.535L130.177,337.402Z" style="fill:rgb(253,244,233);"/>
            <path d="M176.943,205.199L116.124,187.261L130.177,337.402L176.943,205.199Z" style="fill:rgb(252,244,228);"/>
            <path d="M116.124,187.261L78.65,370.104L130.177,337.402L116.124,187.261Z" style="fill:rgb(252,240,232);"/>
            <path d="M116.124,187.261L84.84,209.499L64.06,270.381L78.672,370.104L116.124,187.261Z" style="fill:rgb(253,243,237);"/>
            <path d="M78.65,370.104L40.873,337.402L0,207.676L-87.453,226.269L28.392,407.254L78.65,370.104Z" style="fill:rgb(252,233,231);"/>
            <path d="M0,207.676L4.125,196.739L64.06,270.381L78.672,370.104L40.873,337.402L0,207.676Z" style="fill:rgb(253,240,236);"/>
            <path d="M8.785,202.464L53.341,171.657L59.357,201.552L64.06,270.381L8.785,202.464Z" style="fill:rgb(252,236,232);"/>
            <path d="M53.341,171.657L102.735,136.286L116.124,187.261L84.84,209.499L64.06,270.381L59.357,201.552L53.341,171.657Z" style="fill:rgb(252,238,231);"/>
            <path d="M39.336,118.052L53.341,171.657L8.785,202.464L4.125,196.739L14.599,118.612L39.336,118.052Z" style="fill:rgb(250,215,210);"/>
            <path d="M39.336,118.052L102.735,136.286L53.341,171.657L39.336,118.052Z" style="fill:rgb(249,220,213);"/>
            <path d="M116.124,187.261L164.925,152.918L176.943,205.199L116.124,187.261Z" style="fill:rgb(253,248,234);"/>
            <path d="M151.579,101.075L164.925,152.918L116.124,187.261L151.579,101.075Z" style="fill:rgb(252,244,229);"/>
            <path d="M151.579,101.075L102.735,136.286L116.124,187.261L151.579,101.075Z" style="fill:rgb(252,242,228);"/>
            <path d="M151.579,101.075L39.336,118.052L102.735,136.286L151.579,101.075Z" style="fill:rgb(249,228,216);"/>
            <path d="M90.029,86.329L39.336,118.052L151.579,101.075L90.029,86.329Z" style="fill:rgb(247,207,195);"/>
            <path d="M90.029,86.329L82.003,58.144L14.599,118.612L39.336,118.052L90.029,86.329Z" style="fill:rgb(242,171,158);"/>
            <path d="M151.579,101.075L95.457,48.102L82.003,58.144L90.029,86.329L151.579,101.075Z" style="fill:rgb(246,199,184);"/>
            <path d="M139.567,51.088L151.579,101.075L95.457,48.102L107.164,41.233L139.567,51.088Z" style="fill:rgb(246,204,182);"/>
            <path d="M139.567,51.088L132.848,25.852L107.164,41.233L139.567,51.088Z" style="fill:rgb(241,170,144);"/>
            <path d="M151.579,101.075L226.291,168.626L176.943,205.199L164.925,152.918L151.579,101.075Z" style="fill:rgb(253,251,232);"/>
            <path d="M215.667,117.61L226.291,168.626L151.579,101.075L215.667,117.61Z" style="fill:rgb(254,253,235);"/>
            <path d="M215.667,117.61L275.397,134.85L226.291,168.626L215.667,117.61Z" style="fill:rgb(254,253,229);"/>
            <path d="M275.397,134.85L226.291,168.626L289.287,184.998L275.397,134.85Z" style="fill:rgb(252,253,215);"/>
            <path d="M275.397,134.85L339.364,149.489L289.287,184.998L275.397,134.85Z" style="fill:rgb(253,250,226);"/>
            <path d="M339.364,149.489L326.26,101.075L275.397,134.85L339.364,149.489Z" style="fill:rgb(254,252,239);"/>
            <path d="M326.26,101.075L263.964,83.078L275.397,134.85L326.26,101.075Z" style="fill:rgb(253,250,234);"/>
            <path d="M263.964,83.078L215.667,117.61L275.397,134.85L263.964,83.078Z" style="fill:rgb(254,253,236);"/>
            <path d="M263.964,83.078L151.579,101.075L215.667,117.61L263.964,83.078Z" style="fill:rgb(253,250,231);"/>
            <path d="M263.964,83.078L251.738,33.008L151.579,101.075L263.964,83.078Z" style="fill:rgb(251,243,211);"/>
            <path d="M188.935,16.209L151.579,101.075L201.658,67.041L188.935,16.209Z" style="fill:rgb(247,222,190);"/>
            <path d="M188.935,16.209L251.738,33.008L201.658,67.041L188.935,16.209Z" style="fill:rgb(247,225,183);"/>
            <path d="M151.579,101.075L139.567,51.088L188.935,16.209L151.579,101.075Z" style="fill:rgb(248,222,193);"/>
            <path d="M139.567,51.088L132.848,25.852L167.556,9.713L188.935,16.209L139.567,51.088Z" style="fill:rgb(242,189,155);"/>
            <path d="M188.935,16.209L211.308,0L167.556,9.713L188.935,16.209Z" style="fill:rgb(238,149,118);"/>
            <path d="M251.738,33.008L304.487,-7.907L211.308,0L189.432,15.849L251.738,33.008Z" style="fill:rgb(245,215,160);"/>
            <path d="M263.964,83.078L313.745,48.5L251.738,33.008L263.964,83.078Z" style="fill:rgb(249,239,204);"/>
            <path d="M313.745,48.5L374.408,64.18L304.487,-7.907L251.738,33.008L313.745,48.5Z" style="fill:rgb(249,230,192);"/>
            <path d="M374.408,64.18L313.745,48.5L263.964,83.078L374.408,64.18Z" style="fill:rgb(252,245,216);"/>
            <path d="M374.408,64.18L326.26,101.075L263.964,83.078L374.408,64.18Z" style="fill:rgb(245,237,216);"/>
            <path d="M374.408,64.18L364.142,2.77L304.487,-7.907L374.408,64.18Z" style="fill:rgb(238,214,200);"/>
            <path d="M374.408,64.18L339.364,149.489L326.26,101.075L374.408,64.18Z" style="fill:rgb(252,248,236);"/>
            <path d="M374.408,64.18L399.772,168.626L339.364,149.489L374.408,64.18Z" style="fill:rgb(253,250,241);"/>
            <path d="M449.467,131.667L399.772,168.626L462.404,183.325L449.467,131.667Z" style="fill:rgb(247,245,245);"/>
            <path d="M449.467,131.667L529.337,192.79L462.404,183.325L449.467,131.667Z" style="fill:rgb(245,246,249);"/>
            <path d="M449.467,131.667L374.408,64.18L399.772,168.626L449.467,131.667Z" style="fill:rgb(248,246,242);"/>
            <path d="M374.408,64.18L437.335,80.337L449.467,131.667L374.408,64.18Z" style="fill:rgb(239,233,235);"/>
            <path d="M437.335,80.337L449.467,131.667L529.337,192.79L474.199,83.603L437.335,80.337Z" style="fill:rgb(237,235,239);"/>
            <path d="M374.408,64.18L432.749,54.849L474.199,83.603L437.335,80.337L374.408,64.18Z" style="fill:rgb(214,196,204);"/>
            <path d="M374.408,64.18L432.749,54.849L364.142,2.77L374.408,64.18Z" style="fill:rgb(225,187,186);"/>
        </g>
        <g transform="matrix(1,0,0,1,-11.0044,1.51763)">
            <g transform="matrix(1,0,0,1,-538.771,-9.41459)">
                <path d="M790.83,158.903L938.97,158.903L933.39,201.192L883.236,201.192L861.108,368.891L813.276,368.891L835.404,201.192L785.25,201.192L790.83,158.903Z" style="fill:rgb(53,49,139);"/>
                <clipPath id="_clip3">
                    <path d="M790.83,158.903L938.97,158.903L933.39,201.192L883.236,201.192L861.108,368.891L813.276,368.891L835.404,201.192L785.25,201.192L790.83,158.903Z"/>
                </clipPath>
                <g clip-path="url(#_clip3)">
                    <path d="M814.565,359.15L802.944,369.343L816.4,381.372L826.341,373.48L814.565,359.15Z" style="fill:rgb(2,9,120);"/>
                    <path d="M829.811,335.736L814.565,359.15L833.832,382.595L851.553,370.621L829.811,335.736Z" style="fill:rgb(9,16,124);"/>
                    <path d="M829.811,335.736L873.294,337.647L861.049,385.858L829.811,335.736Z" style="fill:rgb(10,17,125);"/>
                    <path d="M829.811,335.736L814.565,359.15L805.391,335.736L815.48,316.439L829.811,335.736Z" style="fill:rgb(17,26,127);"/>
                    <path d="M866.564,270.98L881.064,271.521L873.294,337.647L829.811,335.736L866.564,270.98Z" style="fill:rgb(13,21,130);"/>
                    <path d="M866.564,270.98L829.811,335.736L809.583,308.499L814.366,269.032L866.564,270.98Z" style="fill:rgb(12,19,127);"/>
                    <path d="M931.37,159.03L941.691,159.03L934.301,201.561L909.453,198.601L931.37,159.03Z" style="fill:rgb(87,62,141);"/>
                    <path d="M888.556,159.03L931.37,159.03L909.453,198.601L888.556,159.03Z" style="fill:rgb(71,60,140);"/>
                    <path d="M881.93,160.531L888.556,159.03L909.453,198.601L874.593,198.601L866.059,184.166L881.93,160.531Z" style="fill:rgb(69,59,138);"/>
                    <path d="M851.199,159.03L881.93,160.531L866.059,184.166L851.199,159.03Z" style="fill:rgb(64,57,138);"/>
                    <path d="M874.593,198.601L901.471,231.95L881.064,271.521L814.366,269.032L802.7,210.547L874.593,198.601Z" style="fill:rgb(35,41,139);"/>
                    <path d="M831.787,157.785L851.199,159.03L874.593,198.601L802.7,210.547L831.787,157.785Z" style="fill:rgb(43,49,138);"/>
                    <path d="M831.787,157.785L802.7,210.547L777.035,209.302L787.736,152.31L831.787,157.785Z" style="fill:rgb(25,37,134);"/>
                </g>
                <path d="M790.83,158.903L938.97,158.903L933.39,201.192L883.236,201.192L861.108,368.891L813.276,368.891L835.404,201.192L785.25,201.192L790.83,158.903Z" style="fill:none;stroke:black;stroke-width:5.29px;"/>
            </g>
            <g transform="matrix(1,0,0,1,-538.771,-9.41459)">
                <path d="M700.29,158.903L748.152,158.903L726.024,326.602L798.408,326.602L792.828,368.891L672.581,368.891L700.29,158.903Z" style="fill:rgb(180,47,84);"/>
                <clipPath id="_clip4">
                    <path d="M700.29,158.903L748.152,158.903L726.024,326.602L798.408,326.602L792.828,368.891L672.581,368.891L700.29,158.903Z"/>
                </clipPath>
                <g clip-path="url(#_clip4)">
                    <path d="M729.469,371.058C729.469,371.058 794.985,379.769 796.478,377.529C797.971,375.289 802.7,322.279 802.7,322.279L757.078,325.515L729.469,371.058Z" style="fill:rgb(161,28,66);"/>
                    <path d="M729.033,371.058L757.078,325.515L701.859,325.515L729.033,371.058Z" style="fill:rgb(181,43,82);"/>
                    <path d="M701.859,325.515L729.033,371.058L646.905,390.968L651.136,325.515L701.859,325.515Z" style="fill:rgb(185,49,89);"/>
                    <path d="M701.859,325.515L749.192,325.515L743.692,253.928L701.859,325.515Z" style="fill:rgb(116,0,52);"/>
                    <path d="M701.859,325.515L651.136,325.515L676.194,288.184L701.859,325.515" style="fill:rgb(113,0,54);"/>
                    <path d="M720.525,231.02L757.078,231.02L701.859,325.515L676.194,288.184L720.525,231.02Z" style="fill:rgb(104,0,49);"/>
                    <path d="M720.525,231.02L676.194,288.184L672.694,229.854L720.525,231.02Z" style="fill:rgb(165,44,86);"/>
                    <path d="M720.525,231.02L768.744,231.02L740.357,202.633L720.525,231.02Z" style="fill:rgb(117,0,47);"/>
                    <path d="M740.357,202.633L720.525,231.02L672.694,229.854L686.694,202.633L740.357,202.633Z" style="fill:rgb(180,47,84);"/>
                    <path d="M740.357,202.633L775.355,141.97L700.693,141.97L740.357,202.633Z" style="fill:rgb(158,18,57);"/>
                    <path d="M740.357,202.633L686.694,202.633L700.693,141.97L740.357,202.633Z" style="fill:rgb(210,63,81);"/>
                </g>
                <path d="M700.29,158.903L748.152,158.903L726.024,326.602L798.408,326.602L792.828,368.891L672.581,368.891L700.29,158.903Z" style="fill:none;stroke:black;stroke-width:5.29px;"/>
            </g>
        </g>
    </g>
    <defs>
        <linearGradient id="_Linear1" x1="0" y1="0" x2="1" y2="0" gradientUnits="userSpaceOnUse" gradientTransform="matrix(30.3618,501.337,-501.337,30.3618,256,8.87736)"><stop offset="0" style="stop-color:rgb(245,215,160);stop-opacity:1"/><stop offset="0.38" style="stop-color:white;stop-opacity:1"/><stop offset="0.81" style="stop-color:rgb(191,162,183);stop-opacity:1"/><stop offset="1" style="stop-color:rgb(106,59,124);stop-opacity:1"/></linearGradient>
    </defs>
</svg>
